<?xml version="1.0" standalone="no"?>
<!DOCTYPE svg PUBLIC "-//W3C//DTD SVG 20010904//EN"
 "http://www.w3.org/TR/2001/REC-SVG-20010904/DTD/svg10.dtd">
<svg version="1.0" xmlns="http://www.w3.org/2000/svg"
 width="16.000000pt" height="16.000000pt" viewBox="0 0 16.000000 16.000000"
 preserveAspectRatio="xMidYMid meet">
<metadata>
Created by potrace 1.11, written by Peter Selinger 2001-2013
</metadata>
<g transform="translate(0.000000,16.000000) scale(0.008333,-0.008333)"
fill="#000000" stroke="none">
<path d="M815 1813 c-135 -16 -247 -55 -344 -122 -52 -35 -68 -41 -113 -41
-116 0 -184 -44 -212 -138 -8 -29 -20 -108 -27 -175 -11 -117 -11 -124 9 -164
27 -52 62 -80 126 -98 77 -22 284 -47 344 -43 92 8 144 67 146 166 l1 57 -38
9 c-52 13 -70 0 -81 -57 l-9 -47 -66 2 -66 2 62 3 61 4 7 39 c8 50 34 73 77
68 18 -1 54 6 79 17 43 18 47 23 53 62 4 28 -1 63 -14 104 l-19 62 28 26 c25
23 30 38 40 123 14 123 14 148 -1 147 -7 -1 -26 -4 -43 -6z m-232 -180 c-7 -2
-19 -2 -25 0 -7 3 -2 5 12 5 14 0 19 -2 13 -5z m115 -35 c56 -34 85 -82 88
-146 l3 -57 -8 56 c-13 88 -46 125 -150 165 l-36 14 35 -6 c19 -3 50 -15 68
-26z m-178 7 c180 -27 230 -63 230 -165 0 -32 -3 -61 -7 -63 -5 -3 -22 -2 -40
0 -32 5 -32 6 -27 47 10 72 -28 89 -258 117 -54 6 -109 9 -122 5 -38 -9 -56
-45 -72 -143 -26 -164 -16 -211 49 -232 46 -14 239 -41 297 -41 55 0 72 16 85
78 6 27 11 32 36 32 38 0 44 -17 29 -80 -14 -58 -52 -96 -107 -106 -42 -8
-282 21 -355 43 -64 19 -107 58 -118 108 -11 47 3 214 25 291 16 57 47 101 79
114 34 14 168 11 276 -5z m-177 -92 c-7 -2 -19 -2 -25 0 -7 3 -2 5 12 5 14 0
19 -2 13 -5z m-55 -17 c-7 -8 -15 -12 -17 -11 -5 6 10 25 20 25 5 0 4 -6 -3
-14z m150 7 c-10 -2 -28 -2 -40 0 -13 2 -5 4 17 4 22 1 32 -1 23 -4z m70 -10
c-10 -2 -26 -2 -35 0 -10 3 -2 5 17 5 19 0 27 -2 18 -5z m65 -10 c-7 -2 -21
-2 -30 0 -10 3 -4 5 12 5 17 0 24 -2 18 -5z m61 -16 c12 -9 16 -22 13 -38 -4
-24 -4 -24 -6 3 -1 19 -9 29 -28 36 -16 6 -21 11 -12 11 8 1 23 -5 33 -12z
m-367 -19 c-3 -8 -6 -5 -6 6 -1 11 2 17 5 13 3 -3 4 -12 1 -19z m-10 -60 c-3
-7 -5 -2 -5 12 0 14 2 19 5 13 2 -7 2 -19 0 -25z m436 -39 c12 0 31 -5 42 -10
15 -7 9 -8 -20 -3 -38 5 -85 37 -85 57 0 5 9 -2 21 -17 11 -14 30 -26 42 -27z
m-446 -46 c-3 -10 -5 -4 -5 12 0 17 2 24 5 18 2 -7 2 -21 0 -30z m80 -109 c-3
-3 -12 -4 -19 -1 -8 3 -5 6 6 6 11 1 17 -2 13 -5z m66 -11 c-7 -2 -21 -2 -30
0 -10 3 -4 5 12 5 17 0 24 -2 18 -5z m70 -10 c-7 -2 -21 -2 -30 0 -10 3 -4 5
12 5 17 0 24 -2 18 -5z"/>
<path d="M1150 1771 c0 -6 -14 -117 -31 -248 l-30 -238 28 -22 c15 -13 31 -23
35 -23 3 0 32 42 64 93 63 99 97 137 123 137 9 0 3 -7 -14 -15 -28 -14 -82
-93 -206 -297 -16 -27 -35 -48 -43 -48 -10 0 -28 44 -56 133 -23 72 -53 170
-68 217 -33 106 -36 111 -75 103 -46 -8 -67 -21 -67 -41 0 -9 36 -128 81 -264
l81 -248 36 -9 c20 -5 57 -11 81 -14 38 -5 48 -2 71 21 14 15 31 35 37 46 10
18 11 18 32 -3 11 -11 33 -21 49 -21 71 0 104 -12 114 -42 13 -38 35 -48 117
-55 66 -5 68 -5 93 26 25 29 30 31 90 28 l63 -2 0 100 0 100 64 100 64 99 -39
33 c-21 19 -43 32 -48 30 -6 -2 -28 -28 -49 -58 -21 -30 -41 -55 -45 -57 -4
-1 -20 23 -35 53 -25 51 -29 55 -48 44 -13 -7 -19 -7 -15 -1 10 17 -85 132
-165 200 -97 82 -289 177 -289 143z m-181 -436 c79 -256 75 -247 108 -243 23
3 44 28 134 168 99 155 128 185 150 163 7 -7 119 -375 119 -390 0 -2 12 -3 28
-3 24 0 40 20 152 191 69 105 128 193 133 196 11 7 57 -25 56 -40 0 -6 -62
-104 -137 -217 l-137 -205 -69 2 c-38 2 -73 6 -78 11 -5 5 -29 77 -55 160 -25
84 -49 152 -52 151 -3 0 -46 -61 -94 -136 l-88 -136 -72 7 c-39 4 -74 10 -78
14 -3 4 -38 109 -77 233 -39 124 -74 233 -78 242 -4 12 3 20 28 30 18 8 36 12
39 8 4 -3 34 -96 68 -206z m358 -164 c-3 -10 -5 -7 -6 7 -2 32 -14 27 -39 -16
-11 -21 -31 -47 -43 -58 -11 -10 1 13 27 52 43 63 50 69 57 51 4 -11 6 -28 4
-36z"/>
<path d="M143 943 c-38 -8 -72 -51 -78 -101 -3 -26 -10 -57 -16 -70 -25 -63 8
-162 65 -189 20 -9 40 -30 51 -52 29 -61 99 -153 167 -217 125 -120 335 -229
367 -190 6 7 21 96 33 197 19 164 24 186 45 206 27 25 32 80 8 89 -8 4 -15 11
-15 18 0 6 -25 35 -55 63 -30 29 -65 72 -77 97 -12 25 -28 46 -35 46 -7 0 -13
9 -13 19 0 23 -4 26 -47 36 -25 5 -36 2 -48 -13 -16 -18 -17 -18 -46 9 -19 18
-49 31 -82 38 -64 12 -194 21 -224 14z m161 -28 c38 -3 83 -12 101 -19 57 -24
74 -118 22 -124 -23 -3 -26 1 -29 30 -2 28 -9 35 -38 44 -19 7 -69 15 -111 19
-94 9 -105 1 -114 -88 -13 -124 -1 -136 147 -140 l93 -2 10 33 c7 24 15 32 31
32 31 0 37 -13 24 -60 -17 -63 -43 -74 -153 -66 -202 14 -228 38 -212 201 10
115 51 159 135 149 14 -2 56 -6 94 -9z m263 -84 c-3 -20 -9 -75 -13 -122 l-7
-86 79 -7 c142 -12 154 -16 154 -42 0 -12 -4 -25 -8 -28 -14 -8 -276 24 -282
34 -6 9 16 262 24 286 3 7 16 9 31 6 25 -4 27 -8 22 -41z m-218 -12 c28 -10
-30 -6 -121 7 -41 6 -48 4 -48 -10 0 -9 -4 -16 -9 -16 -5 0 -7 9 -4 21 5 19
10 20 81 13 42 -4 87 -11 101 -15z"/>
<path d="M1009 848 c-35 -28 -200 -280 -197 -299 2 -11 17 -29 34 -40 l32 -19
62 90 c34 50 65 89 68 86 3 -3 -2 -14 -10 -23 -12 -13 -23 -83 -42 -258 -32
-297 -32 -283 0 -291 68 -17 268 39 388 109 75 43 223 178 258 235 14 23 23
31 26 21 11 -35 69 -52 90 -26 6 7 18 83 28 170 13 126 14 160 4 172 -16 19
-59 19 -79 1 -13 -12 -30 -13 -101 -4 -49 7 -96 19 -110 29 -32 22 -104 31
-126 15 -11 -8 -32 -10 -63 -5 -55 8 -65 5 -86 -28 l-17 -25 -18 40 c-21 47
-26 51 -82 58 -28 4 -48 1 -59 -8z m103 -24 c7 -5 140 -315 136 -319 -2 -1
-13 -8 -26 -14 -25 -13 -25 -12 -94 159 -39 96 -56 130 -67 130 -7 0 -119
-156 -182 -253 -8 -11 -49 9 -49 24 0 6 43 74 96 151 l96 139 42 -6 c22 -4 44
-9 48 -11z m422 -146 l96 -123 -22 -17 c-12 -9 -26 -14 -30 -12 -4 3 -44 52
-88 109 -45 58 -85 105 -90 105 -9 0 -15 -39 -28 -180 -7 -72 -8 -75 -34 -78
-26 -3 -28 -1 -28 32 0 38 19 227 26 264 4 19 11 22 53 22 l48 0 97 -122z
m200 83 c6 -9 -23 -312 -30 -320 -1 -2 -15 0 -30 3 -23 6 -25 11 -21 39 3 18
11 89 18 160 11 123 12 127 35 127 12 0 25 -4 28 -9z m-666 -47 c22 -6 28 -29
14 -52 -6 -9 -16 -10 -34 -3 -20 8 -25 15 -21 35 6 28 7 29 41 20z"/>
</g>
</svg>
